<?xml version="1.0" standalone="no"?>
<!DOCTYPE svg PUBLIC "-//W3C//DTD SVG 20010904//EN"
 "http://www.w3.org/TR/2001/REC-SVG-20010904/DTD/svg10.dtd">
<svg version="1.0" xmlns="http://www.w3.org/2000/svg"
 width="2560.000000pt" height="2560.000000pt" viewBox="0 0 2560.000000 2560.000000"
 preserveAspectRatio="xMidYMid meet">
<metadata>
Created by potrace 1.14, written by Peter Selinger 2001-2017
</metadata>
<g transform="translate(0.000000,2560.000000) scale(0.100000,-0.100000)"
fill="#000000" stroke="none">
<path d="M12298 20535 c-2 -2 -71 -6 -153 -10 -83 -4 -168 -8 -190 -10 -22 -1
-85 -6 -140 -10 -120 -8 -125 -9 -335 -30 -14 -2 -56 -6 -95 -10 -38 -4 -78
-9 -90 -11 -11 -2 -47 -7 -80 -10 -33 -3 -67 -7 -75 -9 -8 -2 -37 -7 -65 -10
-27 -4 -61 -8 -75 -11 -14 -2 -45 -6 -70 -10 -25 -3 -56 -7 -70 -10 -14 -2
-41 -7 -60 -10 -19 -2 -57 -9 -85 -14 -27 -5 -66 -12 -85 -14 -19 -3 -45 -8
-56 -10 -12 -2 -37 -7 -55 -10 -19 -3 -46 -8 -61 -11 -16 -3 -38 -7 -50 -9
-13 -2 -68 -14 -123 -25 -92 -20 -204 -43 -265 -55 -14 -3 -54 -12 -90 -21
-35 -9 -74 -18 -85 -20 -11 -2 -21 -4 -22 -6 -2 -1 -6 -2 -10 -3 -14 -3 -88
-19 -100 -22 -6 -1 -27 -7 -45 -13 -18 -5 -44 -12 -58 -13 -14 -2 -29 -6 -35
-9 -5 -3 -32 -11 -60 -18 -56 -14 -145 -39 -253 -71 -40 -12 -78 -23 -85 -24
-7 -2 -19 -6 -27 -9 -8 -3 -33 -11 -55 -17 -22 -6 -47 -14 -55 -17 -8 -3 -24
-8 -35 -10 -11 -1 -29 -7 -40 -13 -17 -8 -188 -66 -220 -74 -5 -2 -17 -6 -25
-9 -8 -4 -42 -16 -75 -28 -33 -11 -74 -27 -92 -35 -17 -8 -34 -14 -38 -14 -7
0 -171 -62 -210 -80 -87 -40 -134 -57 -139 -52 -3 3 -6 0 -6 -7 0 -7 -4 -9
-10 -6 -5 3 -10 1 -10 -4 0 -6 -3 -10 -7 -9 -8 1 -28 -6 -98 -37 -22 -10 -42
-19 -45 -20 -3 0 -31 -13 -63 -28 -32 -15 -62 -27 -67 -27 -6 0 -10 -4 -10
-10 0 -5 -9 -10 -20 -10 -11 0 -20 -5 -20 -12 0 -6 -3 -9 -6 -5 -7 7 -376
-180 -386 -196 -4 -7 -8 -9 -8 -5 0 7 -129 -59 -140 -71 -3 -4 -18 -13 -35
-21 -16 -8 -65 -36 -107 -62 -43 -27 -82 -48 -88 -48 -5 0 -10 -4 -10 -10 0
-5 -5 -10 -11 -10 -6 0 -31 -13 -55 -30 -24 -16 -64 -43 -88 -60 -24 -16 -49
-30 -55 -30 -6 0 -11 -3 -11 -8 0 -4 -20 -18 -45 -32 -25 -14 -45 -28 -45 -32
0 -5 -6 -8 -14 -8 -8 0 -16 -3 -18 -7 -5 -12 -66 -53 -78 -53 -6 0 -9 -4 -6
-8 2 -4 -8 -13 -23 -20 -15 -7 -37 -21 -49 -32 -12 -11 -26 -20 -32 -20 -5 0
-10 -4 -10 -8 0 -4 -12 -15 -27 -24 -32 -19 -67 -46 -94 -70 -11 -10 -22 -18
-26 -18 -5 0 -20 -10 -34 -23 -15 -12 -41 -33 -59 -47 -18 -14 -39 -31 -46
-37 -7 -7 -15 -13 -18 -13 -3 0 -18 -11 -33 -24 -16 -14 -62 -52 -103 -86
-115 -94 -173 -143 -198 -167 -13 -13 -25 -23 -28 -23 -3 0 -15 -10 -28 -22
-13 -13 -68 -63 -122 -113 -54 -49 -166 -155 -248 -235 -172 -167 -150 -145
-246 -249 -41 -45 -98 -106 -127 -137 -28 -30 -67 -74 -87 -97 -19 -23 -54
-62 -76 -86 -23 -24 -53 -60 -68 -80 -15 -19 -40 -49 -55 -65 -45 -49 -237
-290 -238 -298 0 -4 -12 -20 -27 -35 -38 -40 -88 -106 -84 -111 2 -3 0 -8 -5
-11 -10 -7 -50 -56 -78 -95 -51 -71 -95 -132 -105 -143 -5 -7 -10 -16 -10 -22
0 -5 -11 -19 -25 -32 -13 -13 -25 -28 -25 -32 0 -8 -37 -63 -57 -85 -7 -7 -13
-17 -13 -22 0 -5 -6 -15 -13 -22 -12 -12 -193 -292 -247 -383 -13 -22 -28 -42
-32 -43 -5 -2 -6 -7 -3 -12 3 -5 -1 -14 -8 -22 -7 -7 -24 -33 -38 -58 -13 -25
-28 -48 -34 -52 -7 -5 -7 -8 0 -8 7 0 7 -3 0 -8 -11 -8 -46 -66 -73 -122 -9
-19 -23 -41 -30 -48 -7 -8 -10 -18 -7 -23 4 -5 3 -9 -2 -9 -4 0 -33 -48 -63
-107 -30 -60 -58 -110 -63 -111 -4 -2 -5 -8 -1 -13 3 -5 0 -9 -6 -9 -6 0 -9
-4 -6 -9 4 -5 1 -11 -4 -13 -6 -2 -12 -10 -14 -18 -4 -22 -60 -134 -68 -138
-5 -2 -8 -8 -8 -13 0 -5 -17 -46 -39 -92 -64 -136 -90 -195 -156 -352 -68
-162 -143 -353 -145 -370 0 -3 -9 -25 -20 -50 -11 -25 -17 -45 -13 -45 3 0 1
-6 -5 -12 -8 -11 -68 -178 -76 -213 -3 -13 -26 -86 -33 -105 -3 -8 -8 -24 -10
-34 -2 -11 -8 -25 -14 -33 -6 -7 -9 -13 -6 -13 3 0 1 -15 -4 -32 -32 -103 -50
-166 -55 -192 -2 -16 -7 -33 -10 -38 -6 -9 -61 -221 -70 -268 -2 -14 -13 -61
-23 -105 -19 -78 -26 -113 -36 -165 -3 -14 -7 -36 -10 -50 -8 -39 -15 -72 -20
-105 -3 -16 -12 -66 -20 -110 -20 -109 -30 -175 -41 -260 -3 -27 -9 -70 -14
-95 -4 -25 -8 -52 -8 -60 0 -19 -12 -117 -18 -150 -2 -14 -6 -56 -9 -95 -3
-38 -7 -83 -10 -100 -4 -27 -11 -112 -21 -265 -29 -443 -20 -1142 21 -1550 6
-66 14 -142 19 -186 3 -21 8 -68 11 -104 3 -36 8 -72 10 -80 4 -16 12 -66 20
-140 3 -25 10 -70 15 -100 5 -30 12 -73 15 -95 9 -61 13 -81 35 -200 12 -60
22 -119 24 -130 2 -11 13 -65 25 -121 12 -55 23 -109 25 -120 5 -25 35 -150
46 -194 5 -19 12 -48 16 -65 9 -38 11 -44 14 -50 3 -6 3 -7 14 -55 4 -19 21
-82 38 -140 16 -58 31 -109 32 -115 1 -5 9 -30 16 -55 13 -44 17 -56 23 -83 9
-34 84 -268 124 -382 24 -71 46 -137 48 -145 4 -16 165 -437 185 -485 8 -16
14 -32 15 -35 1 -3 9 -23 19 -45 10 -22 24 -56 31 -75 7 -19 23 -57 36 -85 12
-27 23 -52 24 -55 4 -12 25 -61 54 -125 18 -39 32 -70 31 -70 0 0 15 -33 35
-73 19 -40 35 -75 35 -77 0 -4 143 -305 160 -336 4 -9 32 -63 61 -120 29 -57
58 -107 63 -111 6 -4 8 -8 4 -8 -4 0 6 -26 23 -57 30 -56 111 -208 151 -286
11 -20 24 -40 29 -43 5 -3 7 -10 4 -15 -4 -5 -1 -9 4 -9 6 0 11 -6 11 -14 0
-7 7 -19 15 -26 9 -7 13 -15 11 -18 -3 -2 6 -22 20 -43 13 -21 24 -43 24 -49
0 -5 5 -10 10 -10 6 0 10 -4 10 -9 0 -8 47 -92 160 -286 57 -99 204 -341 209
-345 3 -3 15 -21 25 -40 11 -19 43 -71 71 -115 28 -44 62 -98 75 -120 13 -22
38 -53 55 -70 17 -16 44 -48 60 -70 16 -22 34 -45 40 -51 5 -6 19 -23 30 -39
11 -15 38 -49 60 -75 22 -26 60 -71 85 -101 25 -29 68 -78 95 -107 49 -53 99
-121 80 -110 -6 3 -41 25 -80 48 -529 322 -1167 445 -1785 344 -130 -22 -338
-76 -456 -119 -148 -54 -424 -194 -554 -281 -922 -617 -1337 -1722 -1046
-2785 68 -248 179 -491 326 -712 l91 -137 10980 0 10981 0 19 23 c54 63 131
170 169 237 24 41 47 77 52 78 4 2 6 7 3 11 -2 4 28 73 66 152 117 238 170
388 214 604 60 294 59 575 0 870 -74 365 -224 680 -475 997 -49 62 -86 116
-84 120 3 5 1 7 -4 6 -5 -2 -44 34 -87 80 -43 45 -119 117 -169 158 -50 42
-103 86 -118 99 -16 13 -28 21 -28 19 0 -2 -25 12 -55 32 -30 20 -55 41 -55
47 0 6 -3 8 -6 5 -3 -4 -60 22 -127 57 -288 150 -669 263 -997 295 -145 15
-160 18 -160 32 0 6 3 9 6 6 3 -4 46 34 95 83 49 49 94 89 101 89 6 0 9 3 5 6
-7 8 47 64 62 64 6 0 11 5 11 11 0 14 25 39 39 39 6 0 10 5 8 12 -1 6 8 17 21
23 13 7 23 16 24 21 0 5 4 8 8 7 4 -1 14 5 22 14 11 14 11 16 -2 9 -8 -4 -3 2
11 13 15 12 78 71 139 131 62 61 117 110 122 110 5 0 7 3 4 8 -6 9 110 122
118 114 3 -3 6 2 6 12 0 9 5 14 10 11 6 -3 10 2 10 11 0 10 3 15 6 11 3 -3 28
16 55 44 26 27 53 49 59 49 5 0 9 3 8 8 -4 10 99 112 112 112 6 0 8 5 5 10 -3
6 1 10 9 10 9 0 15 6 13 12 -1 7 4 12 11 10 8 -1 11 1 8 6 -3 5 10 23 29 40
19 16 35 29 35 27 0 -1 75 71 166 161 91 90 170 164 175 164 5 0 8 4 6 9 -3
11 50 61 57 53 3 -3 6 2 6 11 0 9 5 17 11 17 5 0 62 52 125 115 63 63 114 112
115 108 0 -5 4 2 10 15 5 13 13 21 18 18 5 -3 15 2 22 11 12 14 12 16 -1 8
-13 -8 -13 -6 -1 8 7 9 17 14 22 11 5 -3 8 -1 7 4 -2 6 0 9 5 9 4 -1 16 13 27
30 18 30 41 49 24 21 -4 -7 18 13 49 45 52 53 58 57 73 43 8 -9 20 -16 25 -16
6 0 7 -4 4 -10 -3 -5 -2 -10 3 -10 9 0 43 -30 165 -145 32 -30 63 -55 68 -55
6 0 7 -4 4 -10 -3 -5 -2 -10 3 -10 5 0 29 -19 52 -41 42 -41 43 -41 81 -29 21
7 37 16 35 19 -1 3 5 14 16 24 10 9 18 15 18 12 0 -3 13 9 29 25 15 17 34 30
41 30 7 0 11 3 8 6 -5 5 37 54 47 54 4 0 77 66 163 148 30 28 59 52 64 52 5 0
7 4 3 9 -3 5 4 12 15 16 11 4 18 11 15 16 -4 5 -2 9 3 9 12 0 215 202 252 249
14 18 33 42 43 53 9 12 17 24 18 27 0 3 3 17 5 31 7 37 -39 116 -99 172 -16
16 -26 28 -22 28 4 0 -6 14 -23 30 -18 17 -29 30 -27 30 6 0 -39 50 -109 121
-37 37 -38 41 -25 65 7 14 22 30 33 36 10 6 41 33 68 60 26 27 48 46 48 43 0
-4 16 9 35 29 43 44 40 53 -39 131 -34 33 -60 63 -58 68 1 4 -5 7 -13 7 -8 0
-15 4 -15 9 0 5 -19 28 -42 52 -24 24 -42 47 -40 52 1 4 -2 7 -7 7 -13 0 -81
67 -74 74 4 3 -2 6 -12 6 -10 0 -16 3 -12 6 3 3 -25 37 -63 74 -37 38 -65 71
-62 74 3 3 -1 6 -9 6 -8 1 -30 19 -49 42 -19 23 -69 75 -110 117 -41 41 -69
71 -61 67 10 -6 12 -5 7 2 -4 7 -14 12 -22 12 -8 0 -14 4 -14 10 0 5 -38 48
-85 95 -47 47 -85 90 -85 96 0 5 -5 7 -10 4 -6 -3 -10 -2 -10 3 0 17 -86 102
-103 102 -10 0 -29 -11 -42 -25 -14 -13 -25 -22 -25 -19 0 2 -16 -10 -35 -28
-19 -18 -50 -46 -70 -63 -20 -16 -49 -41 -64 -55 -16 -14 -33 -26 -39 -27 -5
-1 -52 38 -102 87 -51 50 -97 90 -102 90 -5 0 -6 5 -3 10 3 6 2 10 -3 10 -6 0
-24 12 -41 28 -57 51 -66 57 -73 55 -5 -2 -8 1 -8 7 0 5 -12 16 -27 23 -32 16
-47 10 -103 -37 -19 -15 -29 -25 -21 -20 9 5 12 3 7 -4 -4 -7 -11 -12 -17 -12
-9 0 -46 -30 -106 -88 -18 -17 -35 -32 -38 -32 -3 0 -35 -29 -72 -65 -38 -36
-83 -76 -100 -88 -18 -12 -33 -28 -33 -34 0 -7 -4 -13 -8 -13 -8 0 -36 -24
-170 -151 -72 -67 -102 -90 -102 -76 0 2 14 43 31 93 17 49 32 96 34 104 2 8
10 34 19 58 8 23 13 42 10 42 -2 0 2 14 11 30 9 17 13 30 9 30 -4 0 -2 6 3 12
6 7 16 38 23 68 7 30 15 60 19 65 3 6 6 15 7 20 1 6 9 36 18 68 48 173 49 173
61 228 2 11 7 29 10 39 3 10 8 28 10 39 3 12 7 30 10 41 8 31 15 61 26 110 5
25 12 54 14 65 3 11 7 31 10 45 7 37 13 65 15 65 1 0 4 14 6 30 4 27 25 137
39 205 6 28 12 59 19 110 3 19 7 44 10 55 2 11 7 40 11 65 4 25 9 52 10 60 13
75 20 122 30 220 2 25 7 56 10 70 2 14 7 48 10 75 3 28 8 66 11 86 2 20 7 59
9 85 3 27 7 72 10 99 3 28 7 82 10 120 3 39 8 99 11 135 17 223 24 949 11
1175 -14 231 -21 315 -31 420 -2 22 -7 70 -11 107 -3 37 -7 75 -9 85 -2 10 -7
50 -11 88 -4 39 -9 79 -11 89 -2 11 -6 42 -9 70 -3 28 -7 58 -10 66 -2 8 -6
38 -10 65 -3 28 -8 64 -11 80 -3 17 -7 44 -10 60 -2 17 -6 41 -9 55 -3 14 -7
41 -10 60 -3 19 -8 46 -10 60 -3 14 -7 36 -10 50 -5 26 -21 108 -30 150 -7 34
-23 109 -30 140 -8 35 -13 60 -20 95 -2 17 -25 107 -50 200 -25 94 -48 178
-50 188 -5 17 -11 42 -19 75 -13 50 -128 410 -136 424 -6 10 -10 26 -10 36 0
10 -4 22 -8 27 -5 6 -15 30 -22 55 -8 25 -17 50 -20 55 -4 6 -13 28 -20 50 -7
22 -17 46 -23 53 -5 6 -7 12 -4 12 5 0 -44 125 -90 230 -9 19 -17 40 -18 45
-2 6 -13 33 -26 60 -12 28 -23 52 -24 55 -19 52 -29 70 -37 70 -5 0 -7 4 -4 9
6 8 -199 425 -274 556 -21 39 -42 77 -46 85 -19 40 -129 225 -136 228 -5 2 -6
8 -2 13 3 5 0 9 -7 9 -7 0 -10 3 -6 6 3 3 1 11 -4 18 -5 6 -38 56 -72 111 -34
55 -65 101 -69 103 -5 2 -8 8 -8 13 0 18 -315 480 -332 487 -4 2 -8 8 -8 13 0
10 -91 132 -102 137 -5 2 -8 8 -8 14 0 5 -6 15 -12 23 -7 7 -22 25 -33 41 -30
42 -238 308 -245 314 -3 3 -28 33 -54 68 -27 34 -53 62 -57 62 -5 0 -9 6 -9
13 0 7 -9 19 -20 27 -11 8 -20 19 -20 25 0 5 -17 28 -38 50 -21 22 -63 71 -95
108 -31 38 -57 65 -57 60 -1 -4 -6 2 -13 14 -42 75 -468 511 -722 738 -55 50
-102 92 -105 95 -3 3 -54 46 -115 95 -60 49 -112 92 -115 95 -3 3 -32 25 -65
50 -33 25 -62 48 -65 51 -3 3 -27 20 -55 39 -27 19 -52 36 -55 40 -12 13 -212
150 -221 150 -5 0 -9 5 -9 10 0 6 -6 10 -14 10 -8 0 -16 3 -18 8 -5 11 -66 52
-78 52 -5 0 -10 3 -10 8 0 4 -9 12 -19 17 -31 16 -265 158 -271 164 -3 3 -21
14 -40 23 -43 21 -133 71 -140 78 -3 3 -27 16 -55 30 -27 14 -76 39 -108 57
-31 18 -59 33 -62 33 -2 1 -106 50 -230 111 -124 60 -227 109 -230 109 -2 0
-28 11 -57 24 -129 59 -372 162 -403 170 -5 2 -27 10 -47 20 -21 9 -41 16 -46
16 -4 0 -27 9 -50 20 -22 11 -46 20 -52 20 -5 0 -18 4 -28 9 -68 35 -492 182
-722 251 -41 12 -88 27 -105 33 -16 6 -34 12 -40 14 -5 1 -44 11 -85 23 -161
46 -186 52 -200 55 -8 2 -15 4 -15 5 0 2 -13 5 -75 20 -25 6 -52 13 -60 17 -8
3 -24 8 -35 10 -11 2 -74 17 -140 34 -66 16 -151 37 -190 45 -38 9 -79 18 -90
20 -27 6 -160 34 -210 44 -22 4 -65 13 -95 19 -30 6 -70 13 -89 16 -19 3 -38
8 -42 10 -4 3 -24 7 -45 10 -22 2 -61 9 -89 14 -27 6 -63 12 -80 15 -16 2 -59
9 -95 15 -36 6 -81 13 -100 16 -158 24 -250 37 -280 41 -41 4 -106 13 -141 18
-35 6 -146 17 -208 22 -30 2 -65 6 -79 9 -13 2 -72 7 -130 11 -59 3 -109 8
-113 10 -3 1 -66 6 -140 9 -73 4 -145 9 -159 11 -27 6 -947 14 -952 9z m10222
-13241 c24 -33 78 -98 128 -152 12 -14 22 -29 22 -34 0 -5 5 -6 10 -3 6 3 10
-1 10 -10 0 -9 5 -13 10 -10 6 3 10 2 10 -4 0 -5 16 -26 35 -45 40 -42 42 -50
15 -69 -11 -8 -17 -17 -13 -21 4 -4 -3 -9 -15 -13 -12 -3 -22 -9 -22 -13 0
-12 -45 -60 -57 -60 -6 0 -17 -8 -24 -17 -13 -17 -13 -17 6 -3 19 14 19 14 6
-2 -7 -10 -18 -18 -23 -18 -5 0 -54 -44 -108 -99 -55 -54 -101 -97 -102 -95
-2 1 -12 -10 -23 -27 -11 -16 -28 -32 -38 -35 -9 -3 -15 -10 -12 -15 4 -5 1
-9 -6 -9 -14 0 -59 -47 -59 -62 0 -6 -3 -9 -6 -5 -4 3 -40 -27 -80 -68 -41
-41 -74 -71 -74 -67 0 4 -8 -5 -18 -21 -10 -15 -22 -24 -25 -20 -4 3 -7 0 -7
-8 0 -14 -38 -44 -46 -37 -2 2 28 68 66 146 39 79 70 145 70 147 0 2 21 48 46
102 25 54 52 114 61 133 8 19 19 42 24 52 11 21 180 440 184 453 5 21 17 45
24 45 3 0 17 -16 31 -36z"/>
</g>
</svg>
